
<svg width="90" height="50" viewBox="0 0 333 204" fill="white" xmlns="http://www.w3.org/2000/svg" >
<path stroke="currentColor" d="M89.7,40.3c-7.9,4.8-15.8,9.5-23.8,14.3c-12.5,7.6-25.1,15.1-37.6,22.7c-2.9,1.7-5.8,3.5-8.7,5.2
  c-4.3,2.6-7,7.2-7,12.2c0,5,2.7,9.7,7,12.2c7.9,4.7,15.8,9.4,23.7,14.2c12.6,7.5,25.1,15,37.7,22.5c2.9,1.7,5.8,3.4,8.6,5.1
  c3.1,1.9,7.4,2.4,10.9,1.4c3.3-0.9,6.9-3.4,8.5-6.5c1.7-3.3,2.6-7.3,1.4-10.9c-1.1-3.5-3.3-6.5-6.5-8.5
  c-7.9-4.7-15.8-9.4-23.7-14.2c-12.6-7.5-25.1-15-37.7-22.5c-2.9-1.7-5.8-3.4-8.6-5.1c0,8.2,0,16.3,0,24.5
  c7.9-4.8,15.8-9.5,23.8-14.3C70.2,85.1,82.7,77.5,95.3,70c2.9-1.7,5.8-3.5,8.7-5.2c3.1-1.9,5.6-5,6.5-8.5
  c0.9-3.4,0.5-7.9-1.4-10.9c-2-3-4.9-5.7-8.5-6.5C96.9,38,93,38.3,89.7,40.3L89.7,40.3z"/>
<path stroke="currentColor" d="M26.8,108.9c5,0,10.1,0,15.1,0c12.1,0,24.2,0,36.3,0c14.6,0,29.3,0,43.9,0c12.6,0,25.3,0,37.9,0
  c6.1,0,12.3,0.1,18.4,0c0.1,0,0.2,0,0.3,0c3.6,0,7.5-1.6,10-4.2c2.5-2.5,4.3-6.5,4.2-10c-0.2-3.7-1.4-7.5-4.2-10
  c-2.8-2.5-6.2-4.2-10-4.2c-5,0-10.1,0-15.1,0c-12.1,0-24.2,0-36.3,0c-14.6,0-29.3,0-43.9,0c-12.6,0-25.3,0-37.9,0
  c-6.1,0-12.3-0.1-18.4,0c-0.1,0-0.2,0-0.3,0c-3.6,0-7.5,1.6-10,4.2c-2.5,2.5-4.3,6.5-4.2,10c0.2,3.7,1.4,7.5,4.2,10
  C19.5,107.3,22.9,108.9,26.8,108.9L26.8,108.9z"/>
</svg>
