<svg width="54" height="97" viewBox="0 0 54 97" fill="none" xmlns="http://www.w3.org/2000/svg">
<g clip-path="url(#clip0)">
<path d="M27.1227 97.3645H27C23.1967 97.3645 20.2522 95.2762 20.2522 92.6965H33.8091C33.8091 95.2762 31.4781 97.3645 27.1227 97.3645Z" fill="#545454"/>
<path d="M26.9999 90.8538C24.3621 90.8538 21.7244 90.8538 19.0866 90.8538C17.6143 90.8538 16.4488 90.4238 16.3874 88.7041C16.3261 86.9843 17.4303 86.3701 18.9025 86.3086C24.3008 86.2472 29.7604 86.2472 35.1586 86.3086C36.6309 86.3086 37.7351 86.9843 37.6737 88.7041C37.6124 90.301 36.5695 90.7924 35.1586 90.7924C32.3982 90.8538 29.699 90.8538 26.9999 90.8538Z" fill="#545454"/>
<path d="M37.7964 66.6538C39.0847 66.6538 40.2502 66.6538 41.5997 66.6538C41.5997 71.4447 41.7838 76.1127 41.5384 80.7193C41.4157 83.0533 39.4527 84.4046 37.0603 84.4046C30.4352 84.4046 23.8714 84.4046 17.2463 84.4046C14.6085 84.4046 12.5842 82.7462 12.4615 80.1665C12.2775 75.7442 12.4002 71.3218 12.4002 66.6538C13.8724 66.6538 15.1606 66.6538 16.7556 66.6538H37.7964Z" fill="#545454"/>
<path d="M54.1141 27.5898C54.1141 12.603 41.968 0.44162 27.0002 0.44162C12.0323 0.44162 -0.11377 12.603 -0.11377 27.5898C-0.11377 31.1523 0.561011 34.5304 1.78789 37.6015C1.78789 37.6015 1.78789 37.6015 1.78789 37.6629C2.52401 39.4442 3.38282 41.1639 4.42567 42.6995C7.37017 48.5959 11.8483 58.1162 12.2777 63.5827H23.5036C23.0128 60.7573 21.97 53.8167 21.97 53.8167C21.97 53.8167 12.339 46.2005 18.9028 34.5304C25.4052 22.799 37.6126 21.4477 37.6126 21.4477C34.6068 23.5975 36.8765 29.3096 37.0605 34.469C37.4899 45.5863 32.2144 50.8071 28.9632 53.0797C24.7304 41.5939 31.8463 28.7568 31.8463 28.7568C16.1423 40.1198 27.5523 63.6441 27.5523 63.6441H41.6613V63.5827C42.1521 58.1162 46.5075 48.6573 49.5133 42.8223C50.6175 41.2254 51.4763 39.5056 52.2124 37.7244C53.4393 34.5304 54.1141 31.1523 54.1141 27.5898Z" fill="#545454"/>
</g>
<defs>
<clipPath id="clip0">
<rect width="54" height="97" fill="white"/>
</clipPath>
</defs>
</svg>
