<svg width="120" height="70" viewBox="0 0 333 204" fill="transparent" xmlns="http://www.w3.org/2000/svg">
<path d="M184.078 86H151.188V28.8906H184.078V38.8125H163.297V51.3516H182.633V61.2734H163.297V76H184.078V86ZM212.828 86.7812C199.234 86.7812 192.438 79.3203 192.438 64.3984C192.438 56.9766 194.286 51.3125 197.984 47.4062C201.682 43.474 206.982 41.5078 213.883 41.5078C218.935 41.5078 223.466 42.4974 227.477 44.4766L223.961 53.6953C222.086 52.9401 220.341 52.3281 218.727 51.8594C217.112 51.3646 215.497 51.1172 213.883 51.1172C207.685 51.1172 204.586 55.5182 204.586 64.3203C204.586 72.862 207.685 77.1328 213.883 77.1328C216.174 77.1328 218.297 76.8333 220.25 76.2344C222.203 75.6094 224.156 74.6458 226.109 73.3438V83.5391C224.182 84.763 222.229 85.6094 220.25 86.0781C218.297 86.5469 215.823 86.7812 212.828 86.7812ZM245.758 64.0859C245.758 68.4089 246.461 71.6771 247.867 73.8906C249.299 76.1042 251.617 77.2109 254.82 77.2109C257.997 77.2109 260.276 76.1172 261.656 73.9297C263.062 71.7161 263.766 68.4349 263.766 64.0859C263.766 59.763 263.062 56.5208 261.656 54.3594C260.25 52.1979 257.945 51.1172 254.742 51.1172C251.565 51.1172 249.273 52.1979 247.867 54.3594C246.461 56.4948 245.758 59.737 245.758 64.0859ZM275.953 64.0859C275.953 71.1953 274.078 76.7552 270.328 80.7656C266.578 84.776 261.357 86.7812 254.664 86.7812C250.471 86.7812 246.773 85.8698 243.57 84.0469C240.367 82.1979 237.906 79.5547 236.188 76.1172C234.469 72.6797 233.609 68.6693 233.609 64.0859C233.609 56.9505 235.471 51.4036 239.195 47.4453C242.919 43.487 248.154 41.5078 254.898 41.5078C259.091 41.5078 262.789 42.4193 265.992 44.2422C269.195 46.0651 271.656 48.6823 273.375 52.0938C275.094 55.5052 275.953 59.5026 275.953 64.0859Z" fill="currentColor"/>
<path d="M187.898 136.141C187.898 141.297 186.036 145.359 182.312 148.328C178.615 151.297 173.458 152.781 166.844 152.781C160.75 152.781 155.359 151.635 150.672 149.344V138.094C154.526 139.812 157.781 141.023 160.438 141.727C163.12 142.43 165.568 142.781 167.781 142.781C170.438 142.781 172.469 142.273 173.875 141.258C175.307 140.242 176.023 138.732 176.023 136.727C176.023 135.607 175.711 134.617 175.086 133.758C174.461 132.872 173.536 132.026 172.312 131.219C171.115 130.411 168.654 129.122 164.93 127.352C161.44 125.711 158.823 124.135 157.078 122.625C155.333 121.115 153.94 119.357 152.898 117.352C151.857 115.346 151.336 113.003 151.336 110.32C151.336 105.268 153.042 101.297 156.453 98.4062C159.891 95.5156 164.63 94.0703 170.672 94.0703C173.641 94.0703 176.466 94.4219 179.148 95.125C181.857 95.8281 184.682 96.8177 187.625 98.0938L183.719 107.508C180.672 106.258 178.146 105.385 176.141 104.891C174.161 104.396 172.208 104.148 170.281 104.148C167.99 104.148 166.232 104.682 165.008 105.75C163.784 106.818 163.172 108.211 163.172 109.93C163.172 110.997 163.419 111.935 163.914 112.742C164.409 113.523 165.19 114.292 166.258 115.047C167.352 115.776 169.917 117.104 173.953 119.031C179.292 121.583 182.951 124.148 184.93 126.727C186.909 129.279 187.898 132.417 187.898 136.141ZM225.047 152L222.742 146.062H222.43C220.424 148.589 218.354 150.346 216.219 151.336C214.109 152.299 211.349 152.781 207.938 152.781C203.745 152.781 200.438 151.583 198.016 149.188C195.62 146.792 194.422 143.38 194.422 138.953C194.422 134.318 196.036 130.906 199.266 128.719C202.521 126.505 207.417 125.281 213.953 125.047L221.531 124.812V122.898C221.531 118.471 219.266 116.258 214.734 116.258C211.245 116.258 207.143 117.312 202.43 119.422L198.484 111.375C203.51 108.745 209.083 107.43 215.203 107.43C221.062 107.43 225.555 108.706 228.68 111.258C231.805 113.81 233.367 117.69 233.367 122.898V152H225.047ZM221.531 131.766L216.922 131.922C213.458 132.026 210.88 132.651 209.188 133.797C207.495 134.943 206.648 136.688 206.648 139.031C206.648 142.391 208.576 144.07 212.43 144.07C215.19 144.07 217.391 143.276 219.031 141.688C220.698 140.099 221.531 137.99 221.531 135.359V131.766ZM256.062 152L239.422 108.328H251.883L260.32 133.211C261.258 136.362 261.844 139.344 262.078 142.156H262.312C262.443 139.656 263.029 136.674 264.07 133.211L272.469 108.328H284.93L268.289 152H256.062ZM309.305 115.984C306.779 115.984 304.799 116.792 303.367 118.406C301.935 119.995 301.115 122.26 300.906 125.203H317.625C317.573 122.26 316.805 119.995 315.32 118.406C313.836 116.792 311.831 115.984 309.305 115.984ZM310.984 152.781C303.953 152.781 298.458 150.841 294.5 146.961C290.542 143.081 288.562 137.586 288.562 130.477C288.562 123.159 290.385 117.508 294.031 113.523C297.703 109.513 302.768 107.508 309.227 107.508C315.398 107.508 320.203 109.266 323.641 112.781C327.078 116.297 328.797 121.154 328.797 127.352V133.133H300.633C300.763 136.518 301.766 139.161 303.641 141.062C305.516 142.964 308.146 143.914 311.531 143.914C314.161 143.914 316.648 143.641 318.992 143.094C321.336 142.547 323.784 141.674 326.336 140.477V149.695C324.253 150.737 322.026 151.505 319.656 152C317.286 152.521 314.396 152.781 310.984 152.781Z" fill="currentColor"/>
<path d="M5 33V127.045V199.069L64.7288 136.137L127.307 199.069V127.045V33H5Z" stroke="currentColor" stroke-width="8.5039" stroke-miterlimit="10" stroke-linejoin="round"/>
<path d="M78.7266 57.9413C78.7266 57.9413 40.8329 83.1407 46.2722 95.3804C46.2722 95.3804 73.2873 105.1 90.0585 72.7909C90.0585 72.7909 92.5968 68.111 93.594 63.0711C94.5912 58.0313 100.031 47.5015 100.031 47.5015C100.031 47.5015 56.6975 39.4917 40.3796 62.8012C24.0618 86.1106 37.388 106.45 37.388 106.45C37.388 106.45 47.8133 122.65 84.2566 123.82C84.2566 123.82 100.031 105.1 97.4015 101.68C97.4015 101.68 95.951 100.06 91.8716 102.67C87.7921 105.28 66.9415 119.14 53.7965 110.86C40.6516 102.58 40.017 87.6405 50.9862 73.2409C61.9555 58.8412 78.7266 57.9413 78.7266 57.9413Z" fill="currentColor"/>
</svg>
