<?xml version="1.0" encoding="utf-8"?>
<!-- Generator: Adobe Illustrator 24.3.0, SVG Export Plug-In . SVG Version: 6.00 Build 0)  -->
<svg version="1.1" xmlns="http://www.w3.org/2000/svg" xmlns:xlink="http://www.w3.org/1999/xlink" x="0px" y="0px"
	 viewBox="0 0 205.4 197" style="enable-background:new 0 0 205.4 197;" xml:space="preserve">
<style type="text/css">
	.st0{fill:#47A247;}
	.st1{fill:#FFFFFF;}
	.st2{fill:#FFFFFF;stroke:#38A47E;stroke-miterlimit:10;}
	.st3{fill:#38A47E;stroke:#38A47E;stroke-miterlimit:10;}
	.st4{fill:#38A47E;stroke:#38A47E;stroke-width:14.1732;stroke-miterlimit:10;}
	.st5{fill:#38A47E;}
	.st6{fill:#38A47E;stroke:#38A47E;stroke-width:5.6693;stroke-linejoin:round;stroke-miterlimit:10;}
	.st7{fill:none;stroke:#38A47E;stroke-width:8.5039;stroke-linejoin:round;stroke-miterlimit:10;}
	.st8{fill:none;}
	.st9{fill:#616160;}
	.st10{fill:#9E792C;stroke:#85C0AD;stroke-width:0.8504;stroke-miterlimit:10;}
</style>
<g id="Layer_1">
</g>
<g id="Layer_2">
</g>
<g id="Layer_3">
	<path class="st5" d="M95.6,52.2H51.5c-2.8,0-5-2.2-5-5V32c0-2.8,2.2-5,5-5h44.1c2.8,0,5,2.2,5,5v15.2C100.6,50,98.4,52.2,95.6,52.2
		z"/>
	<path class="st5" d="M155.4,52.2h-44.1c-2.8,0-5-2.2-5-5V32c0-2.8,2.2-5,5-5h44.1c2.8,0,5,2.2,5,5v15.2
		C160.4,50,158.2,52.2,155.4,52.2z"/>
	<path class="st5" d="M64.6,81.7H20.6c-2.8,0-5-2.2-5-5V61.5c0-2.8,2.2-5,5-5h44.1c2.8,0,5,2.2,5,5v15.2
		C69.6,79.4,67.4,81.7,64.6,81.7z"/>
	<path class="st5" d="M124.4,81.7H80.3c-2.8,0-5-2.2-5-5V61.5c0-2.8,2.2-5,5-5h44.1c2.8,0,5,2.2,5,5v15.2
		C129.4,79.4,127.2,81.7,124.4,81.7z"/>
	<path class="st5" d="M184.6,81.7h-44.1c-2.8,0-5-2.2-5-5V61.5c0-2.8,2.2-5,5-5h44.1c2.8,0,5,2.2,5,5v15.2
		C189.6,79.4,187.4,81.7,184.6,81.7z"/>
	<path class="st5" d="M92.8,111.1H48.7c-2.8,0-5-2.2-5-5V90.9c0-2.8,2.2-5,5-5h44.1c2.8,0,5,2.2,5,5v15.2
		C97.8,108.9,95.5,111.1,92.8,111.1z"/>
	<path class="st5" d="M152.6,111.1h-44.1c-2.8,0-5-2.2-5-5V90.9c0-2.8,2.2-5,5-5h44.1c2.8,0,5,2.2,5,5v15.2
		C157.6,108.9,155.3,111.1,152.6,111.1z"/>
	<path class="st5" d="M64.9,140.5H20.8c-2.8,0-5-2.2-5-5v-15.2c0-2.8,2.2-5,5-5h44.1c2.8,0,5,2.2,5,5v15.2
		C69.9,138.3,67.6,140.5,64.9,140.5z"/>
	<path class="st5" d="M124.6,140.5H80.6c-2.8,0-5-2.2-5-5v-15.2c0-2.8,2.2-5,5-5h44.1c2.8,0,5,2.2,5,5v15.2
		C129.6,138.3,127.4,140.5,124.6,140.5z"/>
	<path class="st5" d="M184.9,140.5h-44.1c-2.8,0-5-2.2-5-5v-15.2c0-2.8,2.2-5,5-5h44.1c2.8,0,5,2.2,5,5v15.2
		C189.9,138.3,187.6,140.5,184.9,140.5z"/>
	<path class="st5" d="M89.7,170H45.6c-2.8,0-5-2.2-5-5v-15.2c0-2.8,2.2-5,5-5h44.1c2.8,0,5,2.2,5,5V165
		C94.7,167.8,92.5,170,89.7,170z"/>
	<path class="st5" d="M149.5,170h-44.1c-2.8,0-5-2.2-5-5v-15.2c0-2.8,2.2-5,5-5h44.1c2.8,0,5,2.2,5,5V165
		C154.5,167.8,152.3,170,149.5,170z"/>
</g>
</svg>
