<?xml version="1.0" encoding="utf-8"?>
<!-- Generator: Adobe Illustrator 24.3.0, SVG Export Plug-In . SVG Version: 6.00 Build 0)  -->
<svg version="1.1" xmlns="http://www.w3.org/2000/svg" xmlns:xlink="http://www.w3.org/1999/xlink" x="0px" y="0px"
	 viewBox="0 0 205.4 197" style="enable-background:new 0 0 205.4 197;" xml:space="preserve">
<style type="text/css">
	.st0{fill:#00A439;}
	.st1{fill:#FFFFFF;}
	.st2{fill:#FFFFFF;stroke:#00A67C;stroke-miterlimit:10;}
	.st3{fill:#00A67C;stroke:#00A67C;stroke-miterlimit:10;}
	.st4{fill:#00A67C;stroke:#00A67C;stroke-width:14.1732;stroke-miterlimit:10;}
	.st5{fill:#00A67C;}
	.st6{fill:#00A67C;stroke:#00A67C;stroke-width:5.6693;stroke-linejoin:round;stroke-miterlimit:10;}
	.st7{fill:#38A47E;}
	.st8{fill:none;stroke:#38A47E;stroke-width:8.5039;stroke-linejoin:round;stroke-miterlimit:10;}
	.st9{fill:none;}
	.st10{fill:#616160;}
	.st11{fill:#9E792C;stroke:#85C0AD;stroke-width:0.8504;stroke-miterlimit:10;}
</style>
<g id="Layer_1">
	<g>
		<g>
			<path class="st7" d="M99.7,20c-2.5,2.3-4.9,4.7-7.4,7C86.4,32.7,80.5,38.3,74.6,44c-7.2,6.9-14.4,13.7-21.6,20.6
				c-6.2,5.9-12.4,11.8-18.6,17.7c-3,2.9-6.1,5.6-9,8.6c0,0-0.1,0.1-0.1,0.1c-2.1,2-2.5,5.2-1.5,7.7c1.1,2.6,3.6,4.4,6.5,4.4
				c8.8,0,17.6,0,26.4,0c1.2,0,2.5,0,3.7,0c-2.4-2.4-4.7-4.7-7.1-7.1c0,7.6,0,15.1,0,22.7c0,12,0,24,0,36c0,2.8,0,5.5,0,8.3
				c0,3.7,3.3,7.3,7.1,7.1c3.8-0.2,7.1-3.1,7.1-7.1c0-7.6,0-15.1,0-22.7c0-12,0-24,0-36c0-2.8,0-5.5,0-8.3c0-3.8-3.2-7.1-7.1-7.1
				c-8.8,0-17.6,0-26.4,0c-1.2,0-2.5,0-3.7,0c1.7,4,3.3,8.1,5,12.1c2.5-2.3,4.9-4.7,7.4-7c5.9-5.6,11.8-11.3,17.7-16.9
				c7.2-6.9,14.4-13.7,21.6-20.6c6.2-5.9,12.4-11.8,18.6-17.7c3-2.9,6.1-5.7,9-8.6c0,0,0.1-0.1,0.1-0.1c2.7-2.6,2.8-7.5,0-10
				C106.9,17.4,102.6,17.3,99.7,20L99.7,20z"/>
		</g>
	</g>
	<g>
		<g>
			<path class="st7" d="M148.3,103.1c9,0,18,0,27,0c1.3,0,2.6,0,3.8,0c2.8,0,5.4-1.8,6.5-4.4c1.1-2.6,0.6-5.8-1.5-7.7
				c-3.7-3.6-7.5-7.1-11.2-10.7c-6-5.7-11.9-11.4-17.9-17.1c-1.4-1.3-2.8-2.6-4.1-4c0.7,1.7,1.4,3.3,2.1,5c0-4.9-0.1-9.8-0.1-14.7
				c-0.1-7.8-0.1-15.7-0.2-23.5c0-1.8,0-3.6-0.1-5.4c0-3.8-3.2-7.1-7.1-7.1c-6.3,0-12.7,0-19,0c-3.8,0-7.1,3.2-7.1,7.1
				c0.1,7.5,0.2,14.9,0.3,22.4c0,1.1,0,2.1,0,3.2c4-1.7,8.1-3.3,12.1-5c-6.5-6.2-12.9-12.4-19.4-18.5c-0.9-0.9-1.9-1.8-2.8-2.7
				c-2.7-2.6-7.4-2.9-10,0c-2.5,2.8-2.9,7.3,0,10c6.5,6.2,12.9,12.4,19.4,18.5c0.9,0.9,1.9,1.8,2.8,2.7c2.1,2,5.1,2.6,7.7,1.5
				c2.5-1.1,4.4-3.6,4.4-6.5c-0.1-7.5-0.2-14.9-0.3-22.4c0-1.1,0-2.1,0-3.2c-2.4,2.4-4.7,4.7-7.1,7.1c6.3,0,12.7,0,19,0
				c-2.4-2.4-4.7-4.7-7.1-7.1c0,5.2,0.1,10.4,0.1,15.6c0.1,7.9,0.1,15.8,0.2,23.8c0,2.3-0.3,5,0.7,7.1c0.9,2.1,2.9,3.6,4.5,5.2
				c5.7,5.4,11.3,10.8,17,16.2c4.3,4.1,8.6,8.4,13,12.4c0.1,0.1,0.1,0.1,0.2,0.2c1.7-4,3.3-8.1,5-12.1c-9,0-18,0-27,0
				c-1.3,0-2.6,0-3.8,0c-3.7,0-7.3,3.3-7.1,7.1C141.4,99.9,144.3,103.1,148.3,103.1L148.3,103.1z"/>
		</g>
	</g>
</g>
<g id="Layer_2">
</g>
<g id="Layer_3">
</g>
</svg>
