<svg width="52" height="87" viewBox="0 0 52 87" fill="none" xmlns="http://www.w3.org/2000/svg">
<g filter="url(#filter0_d)">
<path d="M38.4781 38.5905L22.9513 40.667L28.2645 21.4814C29.1414 18.186 33.0368 3.32328 43.7078 5.13362C43.7078 5.13362 36.6229 10.625 33.8871 18.4569C49.9893 10.625 46.7292 1 46.7292 1C29.4507 1.3319 28.0581 13.8974 28.0581 13.8974C28.0581 13.8974 27.078 23.6483 26.2011 14.4843C25.3242 5.32035 5 6.8552 5 6.8552C7.83713 12.9495 16.3485 18.1409 21.6101 18.502C26.8717 18.8631 25.8916 21.978 25.8916 21.978L7.52762 50.779L21.3006 49.7407L13.563 78L38.4781 38.5905Z" fill="white"/>
<path d="M38.4781 38.5905L39.3234 39.1248C39.5309 38.7966 39.5296 38.3778 39.32 38.0508C39.1105 37.7239 38.7305 37.5478 38.3456 37.5993L38.4781 38.5905ZM22.9513 40.667L21.9876 40.4001C21.8979 40.7238 21.9767 41.0708 22.1974 41.324C22.418 41.5772 22.751 41.7027 23.0838 41.6582L22.9513 40.667ZM28.2645 21.4814L29.2282 21.7483L29.2308 21.7386L28.2645 21.4814ZM43.7078 5.13362L44.3204 5.924C44.634 5.6809 44.7743 5.27534 44.6778 4.89043C44.5812 4.50551 44.2663 4.21408 43.875 4.14771L43.7078 5.13362ZM33.8871 18.4569L32.9431 18.1271L32.1431 20.4171L34.3245 19.3561L33.8871 18.4569ZM46.7292 1L47.6763 0.679192C47.5365 0.266495 47.1456 -0.00818372 46.71 0.000184417L46.7292 1ZM28.0581 13.8974L27.0642 13.7873L27.0631 13.7974L28.0581 13.8974ZM5 6.8552L4.9247 5.85804C4.59737 5.88275 4.30303 6.06654 4.13712 6.34978C3.97122 6.63303 3.95489 6.97966 4.09343 7.27724L5 6.8552ZM25.8916 21.978L26.7348 22.5156C26.7819 22.4416 26.8191 22.3618 26.8455 22.2781L25.8916 21.978ZM7.52762 50.779L6.68444 50.2414C6.48087 50.5606 6.47509 50.9675 6.66951 51.2924C6.86393 51.6174 7.22521 51.8046 7.6028 51.7762L7.52762 50.779ZM21.3006 49.7407L22.2651 50.0048C22.351 49.6912 22.279 49.3555 22.0722 49.1046C21.8654 48.8538 21.5496 48.7191 21.2254 48.7435L21.3006 49.7407ZM13.563 78L12.5985 77.7359C12.4677 78.2136 12.7062 78.715 13.1593 78.9149C13.6124 79.1148 14.1436 78.953 14.4082 78.5344L13.563 78ZM38.3456 37.5993L22.8187 39.6759L23.0838 41.6582L38.6107 39.5816L38.3456 37.5993ZM23.915 40.9339L29.2282 21.7483L27.3007 21.2145L21.9876 40.4001L23.915 40.9339ZM29.2308 21.7386C29.6706 20.086 30.8332 15.6802 33.1634 11.9196C35.4975 8.15258 38.8046 5.31608 43.5405 6.11953L43.875 4.14771C37.9399 3.14081 33.9639 6.8305 31.4633 10.8661C28.9588 14.9081 27.7352 19.5815 27.2981 21.2243L29.2308 21.7386ZM43.7078 5.13362C43.0952 4.34324 43.0949 4.34341 43.0947 4.3436C43.0946 4.34369 43.0943 4.34391 43.0941 4.34409C43.0936 4.34446 43.093 4.34492 43.0923 4.34545C43.0909 4.34653 43.0891 4.34794 43.0869 4.34969C43.0824 4.35318 43.0763 4.35801 43.0684 4.36417C43.0528 4.37649 43.0306 4.39411 43.0021 4.41695C42.9451 4.46262 42.8631 4.52917 42.7588 4.61582C42.5504 4.78908 42.2527 5.04293 41.8885 5.37121C41.1606 6.02734 40.1637 6.9833 39.0795 8.18993C36.9196 10.5938 34.3714 14.0382 32.9431 18.1271L34.8312 18.7866C36.1387 15.0436 38.5007 11.8265 40.5672 9.52665C41.5962 8.38146 42.5416 7.47509 43.2275 6.85683C43.5702 6.54792 43.8475 6.31157 44.0372 6.15393C44.132 6.07513 44.2049 6.01605 44.253 5.97746C44.2771 5.95816 44.295 5.944 44.3063 5.93506C44.312 5.93058 44.316 5.92742 44.3184 5.92557C44.3196 5.92465 44.3203 5.92406 44.3207 5.92379C44.3208 5.92366 44.3209 5.92362 44.3208 5.92365C44.3208 5.92367 44.3207 5.92376 44.3207 5.92376C44.3206 5.92387 44.3204 5.924 43.7078 5.13362ZM34.3245 19.3561C42.5504 15.3552 45.9834 10.8156 47.2892 7.12503C47.9377 5.29215 48.0456 3.71086 47.9856 2.57362C47.9556 2.00568 47.8839 1.54874 47.817 1.22601C47.7836 1.06456 47.7513 0.936416 47.726 0.844424C47.7133 0.798416 47.7023 0.761412 47.6938 0.733766C47.6896 0.719942 47.6859 0.708453 47.683 0.699344C47.6815 0.69479 47.6802 0.690829 47.6791 0.687469C47.6785 0.685789 47.678 0.684258 47.6776 0.682879C47.6773 0.682189 47.677 0.681266 47.6769 0.680922C47.6766 0.680039 47.6763 0.679192 46.7292 1C45.782 1.32081 45.7818 1.32003 45.7815 1.3193C45.7815 1.3191 45.7812 1.3184 45.7811 1.318C45.7808 1.31721 45.7806 1.31656 45.7804 1.31605C45.7801 1.31502 45.78 1.31457 45.78 1.31467C45.7801 1.31487 45.7808 1.31731 45.7823 1.32193C45.7851 1.33119 45.7905 1.34919 45.7978 1.37559C45.8123 1.42841 45.8344 1.5147 45.8586 1.63174C45.9071 1.86596 45.9643 2.22216 45.9884 2.67894C46.0365 3.59113 45.953 4.90558 45.4037 6.45793C44.314 9.53782 41.326 13.7267 33.4497 17.5576L34.3245 19.3561ZM46.71 0.000184417C37.7939 0.171451 32.8358 3.51876 30.1288 6.95428C28.79 8.65329 28.0273 10.3414 27.5985 11.6083C27.3838 12.2424 27.2518 12.7738 27.1728 13.1526C27.1332 13.3422 27.1069 13.4939 27.09 13.6016C27.0816 13.6555 27.0755 13.6984 27.0714 13.7296C27.0693 13.7452 27.0677 13.7579 27.0665 13.7675C27.0659 13.7723 27.0655 13.7764 27.0651 13.7797C27.0649 13.7814 27.0647 13.7828 27.0646 13.7841C27.0645 13.7847 27.0644 13.7855 27.0644 13.7858C27.0643 13.7866 27.0642 13.7873 28.0581 13.8974C29.052 14.0076 29.052 14.0082 29.0519 14.0088C29.0519 14.0089 29.0518 14.0094 29.0518 14.0097C29.0517 14.0102 29.0517 14.0105 29.0517 14.0106C29.0517 14.0109 29.0517 14.0104 29.0519 14.0092C29.0522 14.0067 29.0528 14.0014 29.0539 13.9932C29.0561 13.9768 29.06 13.9491 29.066 13.9109C29.0779 13.8344 29.0983 13.7158 29.1306 13.5611C29.1952 13.2515 29.307 12.7986 29.4929 12.2495C29.8651 11.15 30.5305 9.67595 31.6997 8.19209C34.0086 5.26186 38.386 2.16045 46.7484 1.99982L46.71 0.000184417ZM28.0581 13.8974C27.0631 13.7974 27.0631 13.7974 27.0631 13.7974C27.0631 13.7974 27.0631 13.7974 27.0631 13.7975C27.0631 13.7977 27.0631 13.798 27.063 13.7985C27.0629 13.7994 27.0628 13.8009 27.0626 13.803C27.0621 13.8072 27.0615 13.8136 27.0606 13.8222C27.0588 13.8393 27.0561 13.865 27.0526 13.8985C27.0454 13.9654 27.0347 14.0631 27.0208 14.1846C26.9929 14.428 26.9521 14.7656 26.9005 15.1421C26.7952 15.9112 26.6524 16.7861 26.4941 17.3627C26.4555 17.5032 26.4208 17.6081 26.3921 17.6799C26.3575 17.7663 26.3529 17.7508 26.3967 17.6967C26.4181 17.6702 26.6928 17.3391 27.1875 17.4229C27.4057 17.4599 27.5506 17.5663 27.6234 17.6342C27.6936 17.6997 27.7248 17.7544 27.7283 17.7605C27.7337 17.7699 27.7057 17.72 27.6598 17.559C27.6169 17.4084 27.5684 17.1973 27.5166 16.9117C27.413 16.3404 27.3049 15.5215 27.1965 14.389L25.2056 14.5796C25.3165 15.7381 25.4309 16.6191 25.5487 17.2686C25.6586 17.8742 25.7909 18.4031 25.9941 18.7568C26.0772 18.9015 26.3321 19.3065 26.8533 19.3948C27.4524 19.4963 27.8297 19.1052 27.9514 18.9548C28.0955 18.7768 28.1887 18.5737 28.2491 18.4226C28.3154 18.2569 28.3727 18.0745 28.4228 17.892C28.6192 17.1765 28.7762 16.1863 28.882 15.4135C28.9361 15.0191 28.9787 14.6665 29.0078 14.4124C29.0224 14.2852 29.0336 14.1824 29.0412 14.111C29.0451 14.0752 29.048 14.0473 29.05 14.0281C29.051 14.0185 29.0517 14.0111 29.0522 14.0059C29.0525 14.0034 29.0527 14.0014 29.0529 13.9999C29.0529 13.9992 29.053 13.9987 29.053 13.9983C29.053 13.9981 29.0531 13.9979 29.0531 13.9977C29.0531 13.9976 29.0531 13.9975 28.0581 13.8974ZM27.1965 14.389C26.9359 11.6654 25.2144 9.7993 23.0099 8.55531C20.825 7.32237 18.0618 6.63204 15.4169 6.24387C12.7569 5.85348 10.1367 5.75785 8.18898 5.75856C7.21311 5.75892 6.40135 5.78349 5.83188 5.80808C5.54705 5.82037 5.32256 5.83269 5.16817 5.84202C5.09097 5.84668 5.03127 5.8506 4.99029 5.85339C4.9698 5.85479 4.95399 5.85591 4.943 5.8567C4.93751 5.85709 4.93323 5.8574 4.93017 5.85763C4.92864 5.85774 4.92742 5.85783 4.92651 5.8579C4.92605 5.85793 4.9256 5.85797 4.92537 5.85799C4.92499 5.85801 4.9247 5.85804 5 6.8552C5.0753 7.85236 5.07516 7.85237 5.0751 7.85237C5.07518 7.85237 5.07519 7.85237 5.07535 7.85235C5.07567 7.85233 5.0763 7.85228 5.07723 7.85221C5.0791 7.85208 5.08218 7.85185 5.08646 7.85154C5.09503 7.85093 5.10838 7.84998 5.12637 7.84876C5.16235 7.8463 5.21689 7.84272 5.28876 7.83838C5.43251 7.82969 5.64553 7.81799 5.91816 7.80621C6.46359 7.78266 7.2465 7.75891 8.18972 7.75856C10.0802 7.75787 12.5959 7.85127 15.1265 8.22267C17.6722 8.59628 20.1545 9.24048 22.027 10.2971C23.8799 11.3427 25.0278 12.7212 25.2056 14.5796L27.1965 14.389ZM4.09343 7.27724C5.616 10.5478 8.61074 13.4953 11.8391 15.6592C15.0608 17.8186 18.6729 19.3027 21.5416 19.4996L21.6786 17.5043C19.2857 17.3401 16.0114 16.048 12.9527 13.9978C9.90065 11.9522 7.22113 9.25687 5.90657 6.43315L4.09343 7.27724ZM21.5416 19.4996C23.9873 19.6675 24.6388 20.442 24.8298 20.8233C24.9429 21.0491 24.9688 21.2745 24.963 21.4532C24.9602 21.5413 24.9497 21.6116 24.9414 21.6545C24.9374 21.6756 24.934 21.6891 24.9329 21.6937C24.9323 21.6959 24.9323 21.6958 24.933 21.6933C24.9334 21.692 24.9339 21.6901 24.9347 21.6875C24.9351 21.6862 24.9355 21.6848 24.936 21.6832C24.9363 21.6824 24.9365 21.6815 24.9368 21.6806C24.937 21.6802 24.9372 21.6795 24.9372 21.6793C24.9375 21.6786 24.9377 21.6778 25.8916 21.978C26.8455 22.2781 26.8457 22.2774 26.8459 22.2766C26.846 22.2764 26.8463 22.2756 26.8464 22.275C26.8468 22.274 26.8471 22.2728 26.8475 22.2716C26.8482 22.2693 26.849 22.2667 26.8498 22.2639C26.8515 22.2584 26.8534 22.252 26.8555 22.2448C26.8596 22.2304 26.8644 22.2128 26.8697 22.1921C26.8804 22.1509 26.893 22.0971 26.9054 22.0324C26.9302 21.9035 26.9552 21.7276 26.962 21.5181C26.9755 21.1014 26.9176 20.5256 26.618 19.9276C25.9837 18.6612 24.4945 17.6976 21.6786 17.5043L21.5416 19.4996ZM25.0484 21.4404L6.68444 50.2414L8.37081 51.3166L26.7348 22.5156L25.0484 21.4404ZM7.6028 51.7762L21.3758 50.7379L21.2254 48.7435L7.45245 49.7818L7.6028 51.7762ZM20.3361 49.4766L12.5985 77.7359L14.5275 78.2641L22.2651 50.0048L20.3361 49.4766ZM14.4082 78.5344L39.3234 39.1248L37.6329 38.0561L12.7177 77.4656L14.4082 78.5344Z" fill="white"/>
</g>
<defs>
<filter id="filter0_d" x="0" y="0" width="52" height="87.0001" filterUnits="userSpaceOnUse" color-interpolation-filters="sRGB">
<feFlood flood-opacity="0" result="BackgroundImageFix"/>
<feColorMatrix in="SourceAlpha" type="matrix" values="0 0 0 0 0 0 0 0 0 0 0 0 0 0 0 0 0 0 127 0"/>
<feOffset dy="4"/>
<feGaussianBlur stdDeviation="2"/>
<feColorMatrix type="matrix" values="0 0 0 0 0 0 0 0 0 0 0 0 0 0 0 0 0 0 0.5 0"/>
<feBlend mode="normal" in2="BackgroundImageFix" result="effect1_dropShadow"/>
<feBlend mode="normal" in="SourceGraphic" in2="effect1_dropShadow" result="shape"/>
</filter>
</defs>
</svg>
