<?xml version="1.0" encoding="utf-8"?>
<!-- Generator: Adobe Illustrator 24.3.0, SVG Export Plug-In . SVG Version: 6.00 Build 0)  -->
<svg version="1.1" xmlns="http://www.w3.org/2000/svg" xmlns:xlink="http://www.w3.org/1999/xlink" x="0px" y="0px"
	 viewBox="0 0 205.4 197" style="enable-background:new 0 0 205.4 197;" xml:space="preserve">
<style type="text/css">
	.st0{fill:#47A247;}
	.st1{fill:#FFFFFF;}
	.st2{fill:#FFFFFF;stroke:#38A47E;stroke-miterlimit:10;}
	.st3{fill:#38A47E;stroke:#38A47E;stroke-miterlimit:10;}
	.st4{fill:#38A47E;stroke:#38A47E;stroke-width:14.1732;stroke-miterlimit:10;}
	.st5{fill:#38A47E;}
	.st6{fill:#38A47E;stroke:#38A47E;stroke-width:5.6693;stroke-linejoin:round;stroke-miterlimit:10;}
	.st7{fill:none;stroke:#38A47E;stroke-width:8.5039;stroke-linejoin:round;stroke-miterlimit:10;}
	.st8{fill:none;}
	.st9{fill:#616160;}
	.st10{fill:#9E792C;stroke:#85C0AD;stroke-width:0.8504;stroke-miterlimit:10;}
</style>
<g id="Layer_1">
</g>
<g id="Layer_2">
</g>
<g id="Layer_3">
	<path class="st5" d="M150.5,162.4H83.4c-2.8,0-5-2.2-5-5v-21.2c0-2.8,2.2-5,5-5h67.2c2.8,0,5,2.2,5,5v21.2
		C155.5,160.1,153.3,162.4,150.5,162.4z"/>
	<path class="st5" d="M95.9,124.8l43.5,0.3c4.5,0,8.4-3.4,8.8-7.9c1.5-14.9,4.2-53.1-11.5-68.8C121.5,33,89,29.7,73.7,29.3
		c-5-0.1-9,3.9-9,8.8v50.9c0,4.1,2.7,8.3,6.8,8.6c11.3,0.8,16.7-1.8,15.6,18.7C86.9,121.1,91.2,124.8,95.9,124.8z"/>
	<path class="st5" d="M57.2,28.6v67.2c0,2.8-2.2,5-5,5H30.9c-2.8,0-5-2.2-5-5V28.6c0-2.8,2.2-5,5-5h21.2
		C54.9,23.6,57.2,25.9,57.2,28.6z"/>
</g>
</svg>
